<svg xmlns="http://www.w3.org/2000/svg" viewBox="0 0 1000 700" width="1000" height="700">
  <defs>
    <linearGradient id="bgGrad3" x1="0%" y1="0%" x2="100%" y2="100%">
      <stop offset="0%" style="stop-color:#0f172a"/>
      <stop offset="100%" style="stop-color:#1e293b"/>
    </linearGradient>
  </defs>

  <!-- Background -->
  <rect width="1000" height="700" fill="url(#bgGrad3)" rx="12"/>

  <!-- Title -->
  <text x="500" y="38" text-anchor="middle" fill="#f1f5f9" font-family="system-ui, -apple-system, sans-serif" font-size="22" font-weight="700">Password Manager Feature Comparison</text>
  <text x="500" y="56" text-anchor="middle" fill="#94a3b8" font-family="system-ui, sans-serif" font-size="12">SentinelPass vs popular password managers</text>

  <!-- Column headers -->
  <!-- Feature col -->
  <rect x="15" y="70" width="155" height="32" rx="4" fill="#1a56db"/>
  <text x="92" y="91" text-anchor="middle" fill="#fff" font-family="monospace" font-size="11" font-weight="700">Feature</text>
  <!-- SentinelPass -->
  <rect x="175" y="70" width="120" height="32" rx="4" fill="#1a56db"/>
  <text x="235" y="91" text-anchor="middle" fill="#fff" font-family="monospace" font-size="10" font-weight="700">SentinelPass</text>
  <!-- Bitwarden -->
  <rect x="300" y="70" width="120" height="32" rx="4" fill="#334155"/>
  <text x="360" y="91" text-anchor="middle" fill="#cbd5e1" font-family="monospace" font-size="10" font-weight="700">Bitwarden</text>
  <!-- 1Password -->
  <rect x="425" y="70" width="120" height="32" rx="4" fill="#334155"/>
  <text x="485" y="91" text-anchor="middle" fill="#cbd5e1" font-family="monospace" font-size="10" font-weight="700">1Password</text>
  <!-- KeePass -->
  <rect x="550" y="70" width="120" height="32" rx="4" fill="#334155"/>
  <text x="610" y="91" text-anchor="middle" fill="#cbd5e1" font-family="monospace" font-size="10" font-weight="700">KeePass</text>
  <!-- LastPass -->
  <rect x="675" y="70" width="120" height="32" rx="4" fill="#334155"/>
  <text x="735" y="91" text-anchor="middle" fill="#cbd5e1" font-family="monospace" font-size="10" font-weight="700">LastPass</text>
  <!-- Dashlane -->
  <rect x="800" y="70" width="120" height="32" rx="4" fill="#334155"/>
  <text x="860" y="91" text-anchor="middle" fill="#cbd5e1" font-family="monospace" font-size="10" font-weight="700">Dashlane</text>

  <!-- Helper: check=green ✓, cross=red ✗, tilde=amber ~ -->
  <!-- Row data: y starts at 110, 38px per row -->

  <!-- Row 1: Open Source -->
  <rect x="15" y="110" width="155" height="36" rx="2" fill="#1e293b"/>
  <text x="25" y="133" fill="#e2e8f0" font-family="monospace" font-size="11">Open Source</text>
  <rect x="175" y="110" width="120" height="36" rx="2" fill="#0f2a1a"/>
  <text x="235" y="133" text-anchor="middle" fill="#10b981" font-family="monospace" font-size="16">&#x2713;</text>
  <rect x="300" y="110" width="120" height="36" rx="2" fill="#0f2a1a"/>
  <text x="360" y="133" text-anchor="middle" fill="#10b981" font-family="monospace" font-size="16">&#x2713;</text>
  <rect x="425" y="110" width="120" height="36" rx="2" fill="#2a0f0f"/>
  <text x="485" y="133" text-anchor="middle" fill="#ef4444" font-family="monospace" font-size="16">&#x2717;</text>
  <rect x="550" y="110" width="120" height="36" rx="2" fill="#0f2a1a"/>
  <text x="610" y="133" text-anchor="middle" fill="#10b981" font-family="monospace" font-size="16">&#x2713;</text>
  <rect x="675" y="110" width="120" height="36" rx="2" fill="#2a0f0f"/>
  <text x="735" y="133" text-anchor="middle" fill="#ef4444" font-family="monospace" font-size="16">&#x2717;</text>
  <rect x="800" y="110" width="120" height="36" rx="2" fill="#2a0f0f"/>
  <text x="860" y="133" text-anchor="middle" fill="#ef4444" font-family="monospace" font-size="16">&#x2717;</text>

  <!-- Row 2: Local-First -->
  <rect x="15" y="148" width="155" height="36" rx="2" fill="#162032"/>
  <text x="25" y="171" fill="#e2e8f0" font-family="monospace" font-size="11">Local-First</text>
  <rect x="175" y="148" width="120" height="36" rx="2" fill="#0f2a1a"/>
  <text x="235" y="171" text-anchor="middle" fill="#10b981" font-family="monospace" font-size="16">&#x2713;</text>
  <rect x="300" y="148" width="120" height="36" rx="2" fill="#2a0f0f"/>
  <text x="360" y="171" text-anchor="middle" fill="#ef4444" font-family="monospace" font-size="16">&#x2717;</text>
  <rect x="425" y="148" width="120" height="36" rx="2" fill="#2a0f0f"/>
  <text x="485" y="171" text-anchor="middle" fill="#ef4444" font-family="monospace" font-size="16">&#x2717;</text>
  <rect x="550" y="148" width="120" height="36" rx="2" fill="#0f2a1a"/>
  <text x="610" y="171" text-anchor="middle" fill="#10b981" font-family="monospace" font-size="16">&#x2713;</text>
  <rect x="675" y="148" width="120" height="36" rx="2" fill="#2a0f0f"/>
  <text x="735" y="171" text-anchor="middle" fill="#ef4444" font-family="monospace" font-size="16">&#x2717;</text>
  <rect x="800" y="148" width="120" height="36" rx="2" fill="#2a0f0f"/>
  <text x="860" y="171" text-anchor="middle" fill="#ef4444" font-family="monospace" font-size="16">&#x2717;</text>

  <!-- Row 3: Encryption -->
  <rect x="15" y="186" width="155" height="36" rx="2" fill="#1e293b"/>
  <text x="25" y="209" fill="#e2e8f0" font-family="monospace" font-size="11">Encryption</text>
  <rect x="175" y="186" width="120" height="36" rx="2" fill="#1e293b"/>
  <text x="235" y="206" text-anchor="middle" fill="#38bdf8" font-family="monospace" font-size="9">AES-256</text>
  <text x="235" y="217" text-anchor="middle" fill="#38bdf8" font-family="monospace" font-size="9">-GCM</text>
  <rect x="300" y="186" width="120" height="36" rx="2" fill="#1e293b"/>
  <text x="360" y="206" text-anchor="middle" fill="#94a3b8" font-family="monospace" font-size="9">AES-256</text>
  <text x="360" y="217" text-anchor="middle" fill="#94a3b8" font-family="monospace" font-size="9">-CBC</text>
  <rect x="425" y="186" width="120" height="36" rx="2" fill="#1e293b"/>
  <text x="485" y="206" text-anchor="middle" fill="#94a3b8" font-family="monospace" font-size="9">AES-256</text>
  <text x="485" y="217" text-anchor="middle" fill="#94a3b8" font-family="monospace" font-size="9">-GCM</text>
  <rect x="550" y="186" width="120" height="36" rx="2" fill="#1e293b"/>
  <text x="610" y="206" text-anchor="middle" fill="#94a3b8" font-family="monospace" font-size="9">AES-256</text>
  <text x="610" y="217" text-anchor="middle" fill="#94a3b8" font-family="monospace" font-size="9">ChaCha20</text>
  <rect x="675" y="186" width="120" height="36" rx="2" fill="#1e293b"/>
  <text x="735" y="206" text-anchor="middle" fill="#94a3b8" font-family="monospace" font-size="9">AES-256</text>
  <text x="735" y="217" text-anchor="middle" fill="#94a3b8" font-family="monospace" font-size="9">-CBC</text>
  <rect x="800" y="186" width="120" height="36" rx="2" fill="#1e293b"/>
  <text x="860" y="206" text-anchor="middle" fill="#94a3b8" font-family="monospace" font-size="9">AES-256</text>
  <text x="860" y="217" text-anchor="middle" fill="#94a3b8" font-family="monospace" font-size="9">-GCM</text>

  <!-- Row 4: KDF -->
  <rect x="15" y="224" width="155" height="36" rx="2" fill="#162032"/>
  <text x="25" y="247" fill="#e2e8f0" font-family="monospace" font-size="11">KDF</text>
  <rect x="175" y="224" width="120" height="36" rx="2" fill="#162032"/>
  <text x="235" y="247" text-anchor="middle" fill="#38bdf8" font-family="monospace" font-size="9">Argon2id</text>
  <rect x="300" y="224" width="120" height="36" rx="2" fill="#162032"/>
  <text x="360" y="247" text-anchor="middle" fill="#94a3b8" font-family="monospace" font-size="9">PBKDF2</text>
  <rect x="425" y="224" width="120" height="36" rx="2" fill="#162032"/>
  <text x="485" y="247" text-anchor="middle" fill="#94a3b8" font-family="monospace" font-size="9">Argon2id</text>
  <rect x="550" y="224" width="120" height="36" rx="2" fill="#162032"/>
  <text x="610" y="247" text-anchor="middle" fill="#94a3b8" font-family="monospace" font-size="9">AES-KDF</text>
  <rect x="675" y="224" width="120" height="36" rx="2" fill="#162032"/>
  <text x="735" y="247" text-anchor="middle" fill="#94a3b8" font-family="monospace" font-size="9">PBKDF2</text>
  <rect x="800" y="224" width="120" height="36" rx="2" fill="#162032"/>
  <text x="860" y="247" text-anchor="middle" fill="#94a3b8" font-family="monospace" font-size="9">Argon2d</text>

  <!-- Row 5: Biometric -->
  <rect x="15" y="262" width="155" height="36" rx="2" fill="#1e293b"/>
  <text x="25" y="285" fill="#e2e8f0" font-family="monospace" font-size="11">Biometric Unlock</text>
  <rect x="175" y="262" width="120" height="36" rx="2" fill="#0f2a1a"/>
  <text x="235" y="285" text-anchor="middle" fill="#10b981" font-family="monospace" font-size="16">&#x2713;</text>
  <rect x="300" y="262" width="120" height="36" rx="2" fill="#0f2a1a"/>
  <text x="360" y="285" text-anchor="middle" fill="#10b981" font-family="monospace" font-size="16">&#x2713;</text>
  <rect x="425" y="262" width="120" height="36" rx="2" fill="#0f2a1a"/>
  <text x="485" y="285" text-anchor="middle" fill="#10b981" font-family="monospace" font-size="16">&#x2713;</text>
  <rect x="550" y="262" width="120" height="36" rx="2" fill="#2a200f"/>
  <text x="610" y="285" text-anchor="middle" fill="#f59e0b" font-family="monospace" font-size="16">~</text>
  <rect x="675" y="262" width="120" height="36" rx="2" fill="#0f2a1a"/>
  <text x="735" y="285" text-anchor="middle" fill="#10b981" font-family="monospace" font-size="16">&#x2713;</text>
  <rect x="800" y="262" width="120" height="36" rx="2" fill="#0f2a1a"/>
  <text x="860" y="285" text-anchor="middle" fill="#10b981" font-family="monospace" font-size="16">&#x2713;</text>

  <!-- Row 6: Browser Extensions -->
  <rect x="15" y="300" width="155" height="36" rx="2" fill="#162032"/>
  <text x="25" y="323" fill="#e2e8f0" font-family="monospace" font-size="11">Browser Extensions</text>
  <rect x="175" y="300" width="120" height="36" rx="2" fill="#0f2a1a"/>
  <text x="235" y="323" text-anchor="middle" fill="#10b981" font-family="monospace" font-size="16">&#x2713;</text>
  <rect x="300" y="300" width="120" height="36" rx="2" fill="#0f2a1a"/>
  <text x="360" y="323" text-anchor="middle" fill="#10b981" font-family="monospace" font-size="16">&#x2713;</text>
  <rect x="425" y="300" width="120" height="36" rx="2" fill="#0f2a1a"/>
  <text x="485" y="323" text-anchor="middle" fill="#10b981" font-family="monospace" font-size="16">&#x2713;</text>
  <rect x="550" y="300" width="120" height="36" rx="2" fill="#2a200f"/>
  <text x="610" y="323" text-anchor="middle" fill="#f59e0b" font-family="monospace" font-size="16">~</text>
  <rect x="675" y="300" width="120" height="36" rx="2" fill="#0f2a1a"/>
  <text x="735" y="323" text-anchor="middle" fill="#10b981" font-family="monospace" font-size="16">&#x2713;</text>
  <rect x="800" y="300" width="120" height="36" rx="2" fill="#0f2a1a"/>
  <text x="860" y="323" text-anchor="middle" fill="#10b981" font-family="monospace" font-size="16">&#x2713;</text>

  <!-- Row 7: SSH Keys -->
  <rect x="15" y="338" width="155" height="36" rx="2" fill="#1e293b"/>
  <text x="25" y="361" fill="#e2e8f0" font-family="monospace" font-size="11">SSH Key Storage</text>
  <rect x="175" y="338" width="120" height="36" rx="2" fill="#0f2a1a"/>
  <text x="235" y="361" text-anchor="middle" fill="#10b981" font-family="monospace" font-size="16">&#x2713;</text>
  <rect x="300" y="338" width="120" height="36" rx="2" fill="#2a0f0f"/>
  <text x="360" y="361" text-anchor="middle" fill="#ef4444" font-family="monospace" font-size="16">&#x2717;</text>
  <rect x="425" y="338" width="120" height="36" rx="2" fill="#0f2a1a"/>
  <text x="485" y="361" text-anchor="middle" fill="#10b981" font-family="monospace" font-size="16">&#x2713;</text>
  <rect x="550" y="338" width="120" height="36" rx="2" fill="#2a0f0f"/>
  <text x="610" y="361" text-anchor="middle" fill="#ef4444" font-family="monospace" font-size="16">&#x2717;</text>
  <rect x="675" y="338" width="120" height="36" rx="2" fill="#2a0f0f"/>
  <text x="735" y="361" text-anchor="middle" fill="#ef4444" font-family="monospace" font-size="16">&#x2717;</text>
  <rect x="800" y="338" width="120" height="36" rx="2" fill="#2a0f0f"/>
  <text x="860" y="361" text-anchor="middle" fill="#ef4444" font-family="monospace" font-size="16">&#x2717;</text>

  <!-- Row 8: TOTP -->
  <rect x="15" y="376" width="155" height="36" rx="2" fill="#162032"/>
  <text x="25" y="399" fill="#e2e8f0" font-family="monospace" font-size="11">Built-in TOTP</text>
  <rect x="175" y="376" width="120" height="36" rx="2" fill="#0f2a1a"/>
  <text x="235" y="399" text-anchor="middle" fill="#10b981" font-family="monospace" font-size="16">&#x2713;</text>
  <rect x="300" y="376" width="120" height="36" rx="2" fill="#0f2a1a"/>
  <text x="360" y="399" text-anchor="middle" fill="#10b981" font-family="monospace" font-size="16">&#x2713;</text>
  <rect x="425" y="376" width="120" height="36" rx="2" fill="#0f2a1a"/>
  <text x="485" y="399" text-anchor="middle" fill="#10b981" font-family="monospace" font-size="16">&#x2713;</text>
  <rect x="550" y="376" width="120" height="36" rx="2" fill="#2a200f"/>
  <text x="610" y="399" text-anchor="middle" fill="#f59e0b" font-family="monospace" font-size="16">~</text>
  <rect x="675" y="376" width="120" height="36" rx="2" fill="#2a0f0f"/>
  <text x="735" y="399" text-anchor="middle" fill="#ef4444" font-family="monospace" font-size="16">&#x2717;</text>
  <rect x="800" y="376" width="120" height="36" rx="2" fill="#0f2a1a"/>
  <text x="860" y="399" text-anchor="middle" fill="#10b981" font-family="monospace" font-size="16">&#x2713;</text>

  <!-- Row 9: CLI -->
  <rect x="15" y="414" width="155" height="36" rx="2" fill="#1e293b"/>
  <text x="25" y="437" fill="#e2e8f0" font-family="monospace" font-size="11">CLI</text>
  <rect x="175" y="414" width="120" height="36" rx="2" fill="#0f2a1a"/>
  <text x="235" y="437" text-anchor="middle" fill="#10b981" font-family="monospace" font-size="16">&#x2713;</text>
  <rect x="300" y="414" width="120" height="36" rx="2" fill="#0f2a1a"/>
  <text x="360" y="437" text-anchor="middle" fill="#10b981" font-family="monospace" font-size="16">&#x2713;</text>
  <rect x="425" y="414" width="120" height="36" rx="2" fill="#0f2a1a"/>
  <text x="485" y="437" text-anchor="middle" fill="#10b981" font-family="monospace" font-size="16">&#x2713;</text>
  <rect x="550" y="414" width="120" height="36" rx="2" fill="#0f2a1a"/>
  <text x="610" y="437" text-anchor="middle" fill="#10b981" font-family="monospace" font-size="16">&#x2713;</text>
  <rect x="675" y="414" width="120" height="36" rx="2" fill="#2a0f0f"/>
  <text x="735" y="437" text-anchor="middle" fill="#ef4444" font-family="monospace" font-size="16">&#x2717;</text>
  <rect x="800" y="414" width="120" height="36" rx="2" fill="#2a0f0f"/>
  <text x="860" y="437" text-anchor="middle" fill="#ef4444" font-family="monospace" font-size="16">&#x2717;</text>

  <!-- Row 10: Desktop App -->
  <rect x="15" y="452" width="155" height="36" rx="2" fill="#162032"/>
  <text x="25" y="475" fill="#e2e8f0" font-family="monospace" font-size="11">Desktop App</text>
  <rect x="175" y="452" width="120" height="36" rx="2" fill="#0f2a1a"/>
  <text x="235" y="475" text-anchor="middle" fill="#10b981" font-family="monospace" font-size="16">&#x2713;</text>
  <rect x="300" y="452" width="120" height="36" rx="2" fill="#0f2a1a"/>
  <text x="360" y="475" text-anchor="middle" fill="#10b981" font-family="monospace" font-size="16">&#x2713;</text>
  <rect x="425" y="452" width="120" height="36" rx="2" fill="#0f2a1a"/>
  <text x="485" y="475" text-anchor="middle" fill="#10b981" font-family="monospace" font-size="16">&#x2713;</text>
  <rect x="550" y="452" width="120" height="36" rx="2" fill="#0f2a1a"/>
  <text x="610" y="475" text-anchor="middle" fill="#10b981" font-family="monospace" font-size="16">&#x2713;</text>
  <rect x="675" y="452" width="120" height="36" rx="2" fill="#0f2a1a"/>
  <text x="735" y="475" text-anchor="middle" fill="#10b981" font-family="monospace" font-size="16">&#x2713;</text>
  <rect x="800" y="452" width="120" height="36" rx="2" fill="#0f2a1a"/>
  <text x="860" y="475" text-anchor="middle" fill="#10b981" font-family="monospace" font-size="16">&#x2713;</text>

  <!-- Row 11: Free Tier -->
  <rect x="15" y="490" width="155" height="36" rx="2" fill="#1e293b"/>
  <text x="25" y="513" fill="#e2e8f0" font-family="monospace" font-size="11">Free Tier</text>
  <rect x="175" y="490" width="120" height="36" rx="2" fill="#1e293b"/>
  <text x="235" y="510" text-anchor="middle" fill="#38bdf8" font-family="monospace" font-size="9">100% Free</text>
  <rect x="300" y="490" width="120" height="36" rx="2" fill="#1e293b"/>
  <text x="360" y="510" text-anchor="middle" fill="#94a3b8" font-family="monospace" font-size="9">Free core</text>
  <rect x="425" y="490" width="120" height="36" rx="2" fill="#2a0f0f"/>
  <text x="485" y="513" text-anchor="middle" fill="#ef4444" font-family="monospace" font-size="16">&#x2717;</text>
  <rect x="550" y="490" width="120" height="36" rx="2" fill="#1e293b"/>
  <text x="610" y="510" text-anchor="middle" fill="#94a3b8" font-family="monospace" font-size="9">100% Free</text>
  <rect x="675" y="490" width="120" height="36" rx="2" fill="#1e293b"/>
  <text x="735" y="510" text-anchor="middle" fill="#94a3b8" font-family="monospace" font-size="9">Limited</text>
  <rect x="800" y="490" width="120" height="36" rx="2" fill="#1e293b"/>
  <text x="860" y="510" text-anchor="middle" fill="#94a3b8" font-family="monospace" font-size="9">Limited</text>

  <!-- Row 12: Cloud Sync -->
  <rect x="15" y="528" width="155" height="36" rx="2" fill="#162032"/>
  <text x="25" y="551" fill="#e2e8f0" font-family="monospace" font-size="11">Cloud Sync</text>
  <rect x="175" y="528" width="120" height="36" rx="2" fill="#162032"/>
  <text x="235" y="548" text-anchor="middle" fill="#94a3b8" font-family="monospace" font-size="9">Planned</text>
  <rect x="300" y="528" width="120" height="36" rx="2" fill="#0f2a1a"/>
  <text x="360" y="551" text-anchor="middle" fill="#10b981" font-family="monospace" font-size="16">&#x2713;</text>
  <rect x="425" y="528" width="120" height="36" rx="2" fill="#0f2a1a"/>
  <text x="485" y="551" text-anchor="middle" fill="#10b981" font-family="monospace" font-size="16">&#x2713;</text>
  <rect x="550" y="528" width="120" height="36" rx="2" fill="#2a200f"/>
  <text x="610" y="551" text-anchor="middle" fill="#f59e0b" font-family="monospace" font-size="16">~</text>
  <rect x="675" y="528" width="120" height="36" rx="2" fill="#0f2a1a"/>
  <text x="735" y="551" text-anchor="middle" fill="#10b981" font-family="monospace" font-size="16">&#x2713;</text>
  <rect x="800" y="528" width="120" height="36" rx="2" fill="#0f2a1a"/>
  <text x="860" y="551" text-anchor="middle" fill="#10b981" font-family="monospace" font-size="16">&#x2713;</text>

  <!-- Row 13: Written In -->
  <rect x="15" y="566" width="155" height="36" rx="2" fill="#1e293b"/>
  <text x="25" y="589" fill="#e2e8f0" font-family="monospace" font-size="11">Written In</text>
  <rect x="175" y="566" width="120" height="36" rx="2" fill="#1e293b"/>
  <text x="235" y="589" text-anchor="middle" fill="#38bdf8" font-family="monospace" font-size="10">Rust</text>
  <rect x="300" y="566" width="120" height="36" rx="2" fill="#1e293b"/>
  <text x="360" y="589" text-anchor="middle" fill="#94a3b8" font-family="monospace" font-size="10">C#/TS</text>
  <rect x="425" y="566" width="120" height="36" rx="2" fill="#1e293b"/>
  <text x="485" y="589" text-anchor="middle" fill="#94a3b8" font-family="monospace" font-size="10">Go/Rust/TS</text>
  <rect x="550" y="566" width="120" height="36" rx="2" fill="#1e293b"/>
  <text x="610" y="589" text-anchor="middle" fill="#94a3b8" font-family="monospace" font-size="10">C#/.NET</text>
  <rect x="675" y="566" width="120" height="36" rx="2" fill="#1e293b"/>
  <text x="735" y="589" text-anchor="middle" fill="#94a3b8" font-family="monospace" font-size="10">C++/JS</text>
  <rect x="800" y="566" width="120" height="36" rx="2" fill="#1e293b"/>
  <text x="860" y="589" text-anchor="middle" fill="#94a3b8" font-family="monospace" font-size="10">TS/Kotlin</text>

  <!-- Row 14: Pricing -->
  <rect x="15" y="604" width="155" height="36" rx="2" fill="#162032"/>
  <text x="25" y="627" fill="#e2e8f0" font-family="monospace" font-size="11">Pricing</text>
  <rect x="175" y="604" width="120" height="36" rx="2" fill="#162032"/>
  <text x="235" y="627" text-anchor="middle" fill="#38bdf8" font-family="monospace" font-size="10">Free</text>
  <rect x="300" y="604" width="120" height="36" rx="2" fill="#162032"/>
  <text x="360" y="627" text-anchor="middle" fill="#94a3b8" font-family="monospace" font-size="10">$0-10/mo</text>
  <rect x="425" y="604" width="120" height="36" rx="2" fill="#162032"/>
  <text x="485" y="627" text-anchor="middle" fill="#94a3b8" font-family="monospace" font-size="10">$3-8/mo</text>
  <rect x="550" y="604" width="120" height="36" rx="2" fill="#162032"/>
  <text x="610" y="627" text-anchor="middle" fill="#94a3b8" font-family="monospace" font-size="10">Free</text>
  <rect x="675" y="604" width="120" height="36" rx="2" fill="#162032"/>
  <text x="735" y="627" text-anchor="middle" fill="#94a3b8" font-family="monospace" font-size="10">$0-4/mo</text>
  <rect x="800" y="604" width="120" height="36" rx="2" fill="#162032"/>
  <text x="860" y="627" text-anchor="middle" fill="#94a3b8" font-family="monospace" font-size="10">$0-5/mo</text>

  <!-- Legend -->
  <text x="40" y="666" fill="#10b981" font-family="monospace" font-size="14">&#x2713;</text>
  <text x="55" y="666" fill="#64748b" font-family="monospace" font-size="10">Supported</text>
  <text x="145" y="666" fill="#ef4444" font-family="monospace" font-size="14">&#x2717;</text>
  <text x="160" y="666" fill="#64748b" font-family="monospace" font-size="10">Not available</text>
  <text x="265" y="666" fill="#f59e0b" font-family="monospace" font-size="14">~</text>
  <text x="280" y="666" fill="#64748b" font-family="monospace" font-size="10">Plugin / partial</text>

  <!-- Footer -->
  <text x="500" y="692" text-anchor="middle" fill="#334155" font-family="system-ui, sans-serif" font-size="10">github.com/AltamashSentinelPass/sentinelpass · Apache 2.0</text>
</svg>