<svg width="512" height="512" viewBox="0 0 512 512" fill="none" xmlns="http://www.w3.org/2000/svg">
  <rect width="512" height="512" rx="128" fill="#6366f1"/>
  <path d="M256 128c-70.7 0-128 57.3-128 128s57.3 128 128 128 128-57.3 128-128-57.3-128-128-128zm0 192c-35.3 0-64-28.7-64-64s28.7-64 64-64 64 28.7 64 64-28.7 64-64 64zm-96-64c0-53 43-96 96-96s96 43 96 96-43 96-96 96-96-43-96-96z" fill="#ffffff"/>
  <path d="M384 160l-32 32m-121.2 121.2c-42.4 42.4-110.8 42.4-153.2 0s-42.4-110.8 0-153.2 110.8-42.4 153.2 0m0 0l56.6-56.6m0 0l56.6-56.6m56.6 56.6l56.6 56.6 56.6-56.6m-56.6 56.6L448 128" stroke="#ffffff" stroke-width="16" stroke-linecap="round" stroke-linejoin="round"/>
</svg>
